<?xml version="1.0" encoding="UTF-8"?>
<svg width="512px" height="512px" viewBox="0 0 512 512" version="1.1" xmlns="http://www.w3.org/2000/svg" xmlns:xlink="http://www.w3.org/1999/xlink">
    <!-- Generator: Sketch 59 (86127) - https://sketch.com -->
    <title>logo</title>
    <desc>Created with Sketch.</desc>
    <g id="logo" stroke="none" stroke-width="1" fill="none" fill-rule="evenodd">
        <g transform="translate(56.000000, 56.000000)" fill="#61DAFB" fill-rule="nonzero" id="Combined-Shape">
            <path d="M297.25625,204 C314.85625,210.4 358.85625,232.8 343.65625,302.4 C325.25625,388.8 300.45625,404 289.25625,399.2 C274.05625,392 290.85625,371.2 284.45625,348 C280.45625,337.6 272.45625,328 262.85625,322.4 C280.45625,284.8 292.45625,244.8 297.25625,204 Z M103.65625,203.2 C108.45625,244.8 120.45625,284 138.05625,321.6 C127.65625,328 119.65625,336.8 114.85625,347.2 C109.25625,370.4 125.25625,391.2 110.05625,398.4 C98.85625,403.2 74.05625,388 55.65625,301.6 C40.45625,231.2 86.05625,208.8 103.65625,203.2 Z M217.25625,354.4 C216.45625,380 209.25625,398.4 201.25625,398.4 C193.25625,398.4 186.85625,380 185.25625,354.4 L185.25625,354.4 Z M201.25625,0 C314.05625,59.2 289.25625,201.6 289.25625,201.6 C283.65625,252.8 266.85625,301.6 239.65625,345.6 L239.65625,345.6 L161.25625,345.6 C134.85625,301.6 117.25625,252.8 111.65625,201.6 C111.65625,201.6 86.05625,59.2 199.65625,0 L199.65625,0 Z M228.577889,75 C220.695322,75 210.376325,80.6237125 199.942672,90.3791322 C189.50902,80.6810973 179.190022,75.1147696 171.307455,75.1147696 L171.307455,75.1434621 L171.307455,75.1434621 C168.899689,75.1434621 166.721234,75.6599254 164.829418,76.7502371 C156.774868,81.3984076 154.969043,95.8880751 159.125306,114.079064 C141.296372,119.588006 129.6875,128.396577 129.6875,137.692918 C129.6875,147.017951 141.3537,155.855214 159.239961,161.335464 C155.112362,179.583837 156.946851,194.102197 165.030065,198.750368 C166.893217,199.840679 169.071672,200.357143 171.479438,200.357143 C179.362006,200.357143 189.681003,194.73343 200.114656,184.978011 C210.548308,194.676046 220.867305,200.242373 228.749873,200.242373 C231.157639,200.242373 233.336094,199.72591 235.22791,198.635598 C243.28246,193.987428 245.088285,179.49776 240.932022,161.306772 C258.703628,155.826521 270.3125,146.989259 270.3125,137.692918 C270.3125,128.367884 258.6463,119.530622 240.760039,114.050371 C244.887638,95.8019978 243.053149,81.283638 234.969935,76.6354674 C233.22323,75.6133003 231.199403,75.0954919 228.992928,75.0347587 L228.577515,75.028 L228.577889,75 L228.577889,75 Z M165.374032,163.057009 C170.992152,164.434245 177.126223,165.495864 183.575596,166.184482 C187.44522,171.492578 191.458163,176.312903 195.499771,180.530687 C186.155345,189.224487 177.384198,193.987428 171.422111,193.987428 C170.132236,193.958735 169.043009,193.700504 168.183092,193.212733 C164.284804,190.974725 162.593635,182.453079 163.912174,171.492578 C164.227477,168.795491 164.743426,165.954942 165.374032,163.057009 Z M234.683296,162.999624 C235.342565,165.897557 235.858515,168.680721 236.173818,171.349116 C237.52102,182.309616 235.858515,190.831262 231.988891,193.097963 C231.128975,193.614426 230.011083,193.843966 228.692545,193.843966 C222.759121,193.843966 213.95931,189.109718 204.614885,180.473302 C208.627828,176.255518 212.640772,171.463885 216.453068,166.155789 C222.931105,165.467171 229.065175,164.405552 234.683296,162.999624 Z M207.939895,166.815715 C205.360146,170.172727 202.694405,173.242815 200.057328,175.997286 C197.391587,173.242815 194.725846,170.172727 192.088769,166.815715 C194.668518,166.930484 197.305595,167.016561 199.971336,167.016561 C202.665741,167.016561 205.331482,166.959177 207.939895,166.815715 Z M200,114.796374 C204.328246,114.796374 208.656492,114.997221 212.898746,115.34153 C215.277849,118.755926 217.599623,122.399863 219.835406,126.244646 C222.013861,130.003352 223.991668,133.819442 225.797493,137.664225 C223.991668,141.509008 222.013861,145.353791 219.86407,149.112497 C217.628287,152.985973 215.335176,156.658601 212.956074,160.072998 C208.685156,160.445999 204.35691,160.646846 200,160.646846 C195.671754,160.646846 191.343508,160.445999 187.101254,160.10169 C184.722151,156.687294 182.400377,153.043357 180.164594,149.198574 C177.986139,145.439869 176.008332,141.623778 174.202507,137.778995 C175.979668,133.934212 177.986139,130.089429 180.13593,126.330723 C182.371713,122.457247 184.664824,118.784619 187.043926,115.370222 C191.314844,114.997221 195.64309,114.796374 200,114.796374 Z M229.122503,145.382484 C230.670353,149.227267 231.988891,153.07205 233.078119,156.802063 C229.32315,157.72022 225.367535,158.494915 221.2686,159.097456 C222.67313,156.88814 224.07766,154.62144 225.396199,152.297355 C226.714737,150.001962 227.947284,147.677877 229.122503,145.382484 Z M170.848833,145.497253 C172.024052,147.792646 173.256599,150.088039 174.603801,152.383432 C175.951004,154.678825 177.32687,156.916833 178.7314,159.097456 C174.661129,158.494915 170.734178,157.748913 166.979209,156.830756 C168.039773,153.129435 169.358311,149.313344 170.848833,145.497253 Z M160.701819,120.276624 C162.33566,125.900337 164.485451,131.753589 167.151192,137.750302 C164.514115,143.718324 162.392988,149.542883 160.787811,155.137903 C157.950087,154.248439 155.255682,153.272897 152.761924,152.211278 C142.61491,147.878723 136.050882,142.197626 136.050882,137.692918 C136.050882,133.188209 142.61491,127.478419 152.761924,123.174558 C155.227018,122.112939 157.921423,121.166089 160.701819,120.276624 Z M239.183525,120.247932 C242.021249,121.137397 244.715654,122.112939 247.238076,123.174558 C257.38509,127.507112 263.949118,133.188209 263.949118,137.692918 C263.920455,142.197626 257.356426,147.907416 247.209412,152.211278 C244.744318,153.272897 242.049913,154.219746 239.269517,155.109211 C237.635676,149.485498 235.485885,143.632247 232.820144,137.635533 C235.457221,131.667511 237.578348,125.842952 239.183525,120.247932 Z M200,124.017857 C192.677296,124.017857 186.741071,129.954082 186.741071,137.276786 C186.741071,144.59949 192.677296,150.535714 200,150.535714 C207.322704,150.535714 213.258929,144.59949 213.258929,137.276786 C213.258929,129.954082 207.322704,124.017857 200,124.017857 Z M178.702736,116.288379 C177.298206,118.497695 175.893676,120.764395 174.575138,123.088481 C173.256599,125.383873 172.024052,127.679266 170.848833,129.974659 C169.300983,126.129876 167.982445,122.285093 166.893217,118.55508 C170.648186,117.665615 174.603801,116.89092 178.702736,116.288379 Z M221.239936,116.288379 C225.310207,116.89092 229.237159,117.636922 232.992127,118.55508 C231.931563,122.256401 230.613025,126.072491 229.122503,129.888582 C227.947284,127.593189 226.714737,125.297796 225.367535,123.002403 C224.048996,120.70701 222.644466,118.469002 221.239936,116.288379 Z M171.307455,81.5131773 C177.240879,81.5131773 186.04069,86.247425 195.385115,94.8838407 C191.372172,99.1016251 187.359228,103.893258 183.546932,109.201354 C177.068895,109.889972 170.934825,110.951591 165.316704,112.357519 C164.657435,109.488278 164.170149,106.705114 163.826182,104.03672 C162.47898,93.0762188 164.141485,84.5545728 168.011109,82.2878723 C168.871025,81.771409 169.988917,81.5418697 171.307455,81.5418697 L171.307455,81.5131773 Z M228.548515,81.398 L228.549225,81.4271 C229.867764,81.4271 230.928328,81.6853317 231.816908,82.1731027 C235.715196,84.4111107 237.406365,92.9327568 236.087826,103.893258 C235.772523,106.590344 235.256574,109.430893 234.625968,112.328826 C229.007848,110.951591 222.873777,109.889972 216.424404,109.201354 C212.55478,103.893258 208.541837,99.0729327 204.500229,94.8551483 C213.691467,86.3038691 222.328069,81.555626 228.282417,81.402244 L228.548515,81.398 Z M199.914008,99.3885492 C202.579749,102.143021 205.24549,105.213109 207.882567,108.570121 C205.302818,108.455351 202.665741,108.369274 200,108.369274 C197.305595,108.369274 194.639854,108.426659 192.031441,108.570121 C194.61119,105.213109 197.276931,102.143021 199.914008,99.3885492 Z M228.577515,75.028 L228.577889,81.3984076 L228.577889,81.3984076 L228.548515,81.398 L228.549225,75.0286924 L228.549225,75.0286924 L228.577515,75.028 Z"></path>
        </g>
    </g>
</svg>